# xmcd
# 
# Track frame offsets:
#     150
#     19193
#     35766
#     55555
#     70087
#     92041
#     119199
#     147920
#     167366
#     191715
#     205550
#     226243
# 
# Disc length: 3191
# 
# Revision: 1
# Processed by: cddbd v1.5.2PL0 Copyright (c) Steve Scherf et al.
# Submitted via: fre:ac v1.0.31
# 
DISCID=a10c750c
DTITLE=Jeremiah Johnson - Straitjacket
DYEAR=0
DGENRE=Blues
TTITLE0=Straitjacket
TTITLE1=Getting Tired
TTITLE2=Blues In Her Eyes
TTITLE3=Keep On Sailing
TTITLE4=Believe In America
TTITLE5=King and Queen
TTITLE6=Dirty Mind
TTITLE7=9th And Russell
TTITLE8=Old School
TTITLE9=Bonneville Shuffle
TTITLE10=Hold My Hand
TTITLE11=Rock and Roll Music To The World
EXTD=
EXTT0=
EXTT1=
EXTT2=
EXTT3=
EXTT4=
EXTT5=
EXTT6=
EXTT7=
EXTT8=
EXTT9=
EXTT10=
EXTT11=
PLAYORDER=
